P2
102 76
255
85 85 86 88 90 92 93 94 95 97 99 101 102 102 103 103 105 106 107 108 109 110 
111 112 113 113 113 113 112 112 112 111 111 110 110 109 109 109 109 109 109 
109 109 109 109 110 110 110 107 111 107 105 111 110 106 110 108 108 106 105 
107 106 103 103 102 101 99 98 96 95 93 91 90 88 87 85 84 83 82 81 79 78 77 76 
75 74 73 72 71 70 68 67 65 64 62 61 60 59 56 54 52 51 86 87 88 89 91 93 95 95 
97 98 100 102 102 103 104 104 106 106 107 108 110 111 112 112 113 114 114 114 
114 113 113 112 112 112 111 111 110 110 110 111 113 112 110 109 108 109 110 
111 112 113 110 109 114 113 109 110 111 111 110 109 108 106 105 105 103 102 
101 99 98 96 94 93 91 90 88 87 85 84 83 82 82 80 79 78 77 75 74 73 72 71 69 68 
67 66 64 63 61 60 57 55 53 52 89 89 90 91 93 95 97 97 99 100 102 102 103 104 
105 106 107 108 108 109 111 112 113 113 115 115 115 115 115 115 114 114 115 
114 114 113 113 112 112 112 111 112 113 113 114 114 114 113 110 110 110 111 
112 112 111 111 113 111 112 111 107 106 107 105 105 104 103 102 101 99 97 95 
94 92 90 89 87 86 84 83 84 83 81 80 78 77 75 74 74 73 71 70 69 68 66 65 63 61 
59 57 55 54 90 91 92 93 95 97 98 99 101 102 103 103 104 105 107 108 109 109 
110 111 112 113 114 114 116 116 116 116 116 116 116 116 116 116 116 115 115 
114 114 114 113 113 114 114 114 113 111 110 114 114 117 117 114 113 116 116 
113 112 114 114 111 112 113 109 106 106 105 105 104 102 99 97 96 95 92 90 89 
87 86 85 85 84 82 81 80 79 77 76 75 74 72 71 70 69 68 67 64 63 61 59 57 56 92 
92 93 94 96 98 99 100 102 103 103 104 104 106 108 109 110 111 111 112 114 115 
115 116 117 117 117 118 118 118 118 118 117 117 117 117 116 116 115 115 116 
116 115 115 115 116 117 118 117 114 114 115 113 112 114 114 116 115 115 113 
112 112 110 106 108 108 107 106 105 103 101 99 98 96 94 92 90 89 87 86 84 83 
82 81 81 80 79 78 76 75 73 72 71 70 69 68 65 64 62 60 58 57 92 93 94 95 96 98 
99 100 102 103 104 105 105 107 109 110 112 112 113 114 115 116 117 117 118 118 
118 119 119 119 119 119 118 118 119 118 118 118 117 117 117 117 118 118 118 
117 116 115 120 116 114 116 119 119 117 118 113 116 114 112 115 116 115 115 
111 110 108 107 106 105 103 101 99 98 95 93 92 90 89 88 85 84 83 82 82 81 80 
79 77 76 75 73 72 71 70 68 67 65 63 61 60 59 93 93 94 95 97 98 100 100 102 103 
105 106 107 108 110 111 113 113 114 115 116 117 117 118 119 119 120 120 121 
121 121 121 120 120 120 121 121 120 120 120 120 120 119 118 118 119 119 120 
122 125 124 124 124 118 116 123 129 135 128 117 117 114 110 115 113 112 110 
108 107 105 104 103 100 99 97 95 93 92 90 89 87 86 84 84 83 82 81 80 79 78 76 
75 74 72 71 69 68 66 65 62 61 60 93 94 94 96 97 99 100 101 102 103 105 107 108 
109 111 112 114 114 115 116 117 117 118 118 120 120 121 121 122 122 122 122 
121 121 122 122 122 122 122 122 123 120 118 120 128 141 155 164 194 205 208 
201 191 177 175 189 212 216 194 164 147 127 112 117 115 113 110 108 107 106 
105 104 101 99 97 96 94 93 91 90 88 87 86 85 84 83 82 80 80 79 78 76 75 73 72 
70 68 67 65 63 62 61 93 94 94 95 97 99 101 102 104 104 105 107 109 110 111 112 
114 114 114 115 116 117 118 118 120 122 122 121 121 123 123 121 121 121 122 
124 123 120 120 123 120 129 144 165 196 227 244 246 253 252 252 253 253 251 
250 251 251 254 252 239 215 185 153 132 117 114 110 110 110 109 106 103 103 
101 98 96 96 93 91 94 89 88 87 86 86 85 84 83 83 82 80 78 76 74 73 72 71 70 67 
64 63 62 94 94 95 96 97 99 101 102 104 104 106 107 109 110 112 112 114 115 115 
116 117 118 119 119 118 120 121 121 123 125 124 123 124 125 125 124 123 128 
138 146 168 198 233 250 253 252 252 251 252 251 251 252 252 250 250 251 252 
251 251 252 252 245 229 216 179 149 120 112 111 107 105 109 104 101 98 97 98 
98 92 85 90 89 88 87 87 86 85 84 83 82 81 79 77 75 73 73 72 70 68 66 64 63 94 
94 95 96 98 100 101 102 104 105 106 107 109 111 112 112 115 115 116 117 118 
119 120 120 126 121 120 125 125 121 122 128 123 126 125 122 129 159 207 243 
249 252 253 251 249 249 251 252 252 251 251 251 251 251 251 252 249 249 249 
251 254 255 254 250 253 218 169 135 129 133 127 115 108 102 101 100 94 93 96 
95 90 90 88 88 87 87 86 85 83 83 82 80 79 77 75 74 73 72 70 68 66 65 94 95 95 
96 98 100 102 103 104 105 106 108 109 111 112 113 115 115 117 117 118 119 120 
121 118 126 129 124 121 124 125 123 123 128 127 134 174 228 253 248 252 251 
251 252 251 248 246 246 251 250 250 250 250 250 251 251 251 252 252 250 249 
248 250 251 253 255 243 227 224 219 185 143 122 105 102 105 99 95 96 93 91 90 
89 88 88 87 86 85 84 83 83 82 81 78 77 75 74 73 71 69 68 66 95 95 95 97 98 100 
102 103 104 105 106 108 109 111 112 113 114 115 117 118 118 119 121 122 128 
122 120 123 128 129 131 133 144 152 179 216 240 244 249 255 253 251 249 248 
247 247 249 252 248 249 249 248 249 249 250 250 253 251 250 251 252 252 251 
249 248 250 251 251 253 249 233 215 186 155 127 111 101 100 99 91 91 90 89 88 
87 87 86 86 84 84 84 83 82 80 78 77 75 74 73 71 69 67 94 95 95 96 98 100 102 
103 104 105 106 107 109 111 112 112 113 115 117 118 118 119 121 122 123 123 
125 127 128 142 177 211 220 233 246 251 254 255 252 247 255 249 244 245 248 
248 245 242 248 249 249 249 249 249 249 248 248 248 248 249 248 247 247 247 
253 250 249 251 251 250 252 255 250 228 191 144 107 97 99 97 92 91 89 88 88 87 
87 86 85 85 85 84 83 81 80 79 77 76 74 72 70 69 94 95 95 96 98 100 102 103 104 
104 106 107 109 110 112 112 113 115 117 118 118 119 121 123 121 127 128 134 
170 221 249 249 251 252 252 251 250 251 250 249 244 247 250 250 249 249 249 
249 245 247 248 248 248 248 248 246 243 245 248 250 249 247 249 252 242 246 
248 247 248 252 254 252 254 255 242 207 163 127 106 97 95 93 91 90 89 88 88 87 
86 86 85 84 83 82 81 81 79 77 75 73 71 70 94 94 95 96 98 100 101 102 104 104 
105 107 109 110 111 112 113 115 117 118 119 120 122 124 125 133 155 191 229 
251 254 249 251 252 252 251 248 246 246 246 248 248 246 244 243 244 243 241 
242 244 245 244 244 245 244 242 243 239 239 243 248 248 243 240 246 244 240 
237 241 248 251 251 250 249 252 253 234 186 135 109 96 95 93 91 90 89 89 88 87 
86 85 84 83 82 82 82 80 78 76 73 71 71 96 95 96 98 99 99 101 102 104 104 105 
106 108 111 112 113 115 112 120 118 116 123 123 126 141 189 234 251 254 253 
251 249 250 253 248 242 241 241 241 243 244 246 244 237 235 238 240 238 240 
238 239 243 242 240 237 232 233 232 235 239 239 242 244 243 243 245 240 234 
204 212 246 253 251 247 250 251 249 242 219 145 105 99 93 91 90 90 89 91 89 88 
87 85 83 83 82 82 81 80 79 76 74 72 96 96 96 98 99 100 101 102 103 104 105 107 
108 110 112 112 115 118 117 113 119 122 133 166 221 244 255 254 248 249 250 
249 251 242 227 213 222 238 238 239 237 242 242 233 227 229 233 234 233 232 
233 236 237 233 228 225 227 228 230 231 232 238 242 241 238 240 239 229 181 
160 198 249 254 248 246 244 254 255 245 217 151 94 98 96 92 96 93 88 90 89 88 
86 85 84 83 83 82 81 79 77 75 73 98 98 98 100 101 101 102 104 104 105 107 108 
110 111 112 113 114 117 117 118 126 133 168 231 253 255 253 246 245 249 250 
248 244 211 179 174 205 233 234 236 235 240 240 233 226 225 226 226 224 226 
225 226 230 225 218 219 221 221 222 222 223 231 238 239 242 241 241 236 194 
148 160 228 253 247 247 237 242 248 249 251 218 151 107 89 98 89 94 93 91 90 
89 88 87 85 84 84 83 82 81 78 76 74 101 100 100 102 103 103 104 105 106 107 
109 111 112 113 114 115 118 115 122 121 133 189 240 251 250 244 243 246 247 
247 243 239 230 172 128 151 201 223 227 232 237 238 238 234 230 226 219 214 
217 223 222 222 225 218 212 216 215 212 213 216 217 222 231 236 240 239 237 
238 219 171 144 192 241 243 249 239 228 235 249 250 250 231 170 114 105 92 96 
93 92 92 91 90 89 87 86 85 84 84 82 80 77 76 102 101 102 103 104 104 105 107 
108 109 111 113 114 115 117 118 120 124 117 136 196 245 255 250 248 239 239 
245 243 237 233 230 210 149 106 152 203 212 221 225 234 233 231 228 223 217 
209 203 208 218 221 222 224 216 208 213 208 201 202 209 210 212 220 228 231 
239 238 233 223 179 134 165 224 244 246 241 227 225 241 244 250 255 242 168 
105 98 99 94 94 93 93 92 90 89 88 87 85 85 84 81 79 78 103 102 103 105 106 106 
107 108 109 111 113 114 115 117 119 121 122 118 153 214 243 249 251 238 236 
231 234 238 232 227 226 224 186 135 111 162 203 208 221 223 227 226 223 218 
209 202 198 198 196 206 215 220 221 213 206 207 198 190 190 198 199 200 207 
215 221 233 236 232 219 177 127 142 199 242 242 243 240 224 225 237 248 250 
252 224 153 106 99 99 96 96 95 93 92 91 90 89 87 87 85 83 81 79 106 105 105 
107 108 109 110 111 112 114 115 116 117 119 122 125 128 175 223 251 252 245 
242 233 228 230 236 232 222 222 221 211 171 118 115 165 198 209 217 222 222 
219 214 209 201 194 191 193 186 191 200 208 211 208 203 200 187 181 181 184 
187 192 198 201 207 217 223 225 216 183 129 117 172 228 241 242 243 233 220 
230 241 246 240 254 227 140 104 101 99 98 96 95 93 92 92 92 89 88 87 85 83 81 
108 107 108 110 111 112 113 114 115 116 118 118 119 122 125 128 171 237 255 
247 247 243 238 233 223 229 234 224 213 219 219 202 169 104 114 162 193 208 
207 217 219 213 206 203 199 193 188 186 181 180 186 195 200 202 201 197 179 
177 175 175 179 188 194 193 198 208 213 219 216 196 143 110 160 215 241 233 
224 229 215 211 229 238 240 236 238 171 114 105 100 99 98 96 94 94 93 93 90 90 
88 86 84 83 112 111 110 112 113 113 115 117 117 119 121 122 124 121 123 145 
209 251 247 242 238 236 231 213 226 229 224 218 218 219 225 196 153 99 124 168 
195 207 205 201 198 192 192 192 187 186 187 183 178 175 182 188 186 189 192 
186 171 170 177 171 180 187 194 196 193 200 209 211 214 202 157 113 142 195 
237 237 210 209 209 202 212 228 233 232 226 153 111 105 102 101 100 99 98 97 
95 93 94 93 91 89 87 85 113 112 112 114 115 116 118 120 120 121 122 122 126 
126 132 154 220 244 235 235 232 221 214 216 216 217 215 211 217 224 223 189 
143 101 131 174 200 212 209 203 198 190 187 186 181 179 177 171 180 173 175 
179 177 179 179 170 167 161 168 170 173 173 187 198 198 189 194 203 209 195 
154 98 125 180 228 235 209 201 198 195 198 209 209 221 225 151 109 107 104 103 
102 101 100 99 97 96 95 94 92 90 88 86 115 114 114 116 118 118 120 122 124 123 
124 124 126 127 133 152 206 232 224 219 219 210 198 201 206 204 206 204 216 
226 216 180 131 103 139 180 202 209 204 196 193 188 187 186 180 177 176 174 
178 171 169 171 169 171 169 160 162 156 159 164 162 158 173 180 196 198 206 
207 206 197 164 93 113 167 218 234 213 197 186 184 182 192 185 208 224 154 113 
109 107 106 104 103 102 101 99 98 97 96 93 91 89 88 117 116 117 118 120 120 
122 124 124 124 127 127 127 127 129 143 191 225 205 192 196 196 194 196 200 
195 202 202 215 223 208 175 125 108 145 182 199 198 193 188 188 189 191 188 
180 174 177 183 171 165 164 165 164 166 166 162 156 156 156 156 151 152 161 
156 180 203 219 215 207 195 176 114 109 158 208 232 218 200 182 176 172 181 
172 198 218 157 117 109 109 107 105 104 103 102 101 100 99 98 95 92 90 89 120 
119 119 120 121 121 123 124 124 124 129 130 130 130 131 140 180 217 193 183 
185 184 190 193 194 188 200 205 215 218 204 176 124 114 148 180 193 190 191 
193 195 194 192 185 175 167 169 177 165 158 154 156 161 164 162 157 155 155 
150 141 129 130 133 128 149 179 204 221 224 201 174 128 107 152 201 228 217 
201 181 171 166 167 162 191 203 148 115 109 111 109 107 105 105 104 103 102 
101 100 97 94 92 91 122 121 121 122 123 123 124 125 127 125 130 130 129 131 
133 139 164 210 194 178 176 178 182 177 181 182 197 207 216 214 202 173 118 
116 146 173 188 190 200 207 209 201 186 175 168 161 159 165 162 154 146 150 
160 165 159 151 151 146 139 127 111 106 101 111 135 160 180 204 221 215 182 
138 109 146 196 229 217 199 178 165 160 152 158 185 179 133 112 113 113 111 
110 108 107 106 105 104 102 101 99 96 94 93 123 122 123 124 125 125 126 127 
131 128 132 131 130 132 133 137 156 195 193 167 159 171 170 170 170 180 194 
206 215 211 197 158 106 117 148 170 189 198 211 216 210 195 171 155 149 142 
141 149 154 148 143 148 160 165 159 154 147 137 132 121 108 97 75 90 114 139 
158 175 185 206 186 149 106 130 183 228 221 203 179 159 153 145 163 176 151 
123 115 116 114 113 111 110 109 108 106 105 103 102 100 98 96 94 124 123 124 
126 127 127 128 130 131 129 135 135 133 136 137 138 148 172 188 174 162 165 
152 167 164 180 193 205 215 209 192 142 97 119 154 174 194 207 219 218 199 182 
154 133 123 116 118 129 141 142 142 148 158 163 162 163 153 140 132 116 101 
82 36 40 62 96 142 173 166 182 165 138 96 110 164 224 228 212 184 157 146 146 
172 167 129 120 121 115 114 113 112 111 110 109 106 105 103 102 101 99 97 95 
125 125 126 126 128 129 130 131 132 132 133 135 136 137 137 137 141 156 176 
182 167 149 149 162 160 173 192 212 215 207 179 130 93 122 152 188 202 207 215 
194 176 151 123 111 86 97 106 112 130 139 142 152 166 172 174 170 164 146 147 
125 92 51 13 29 19 19 43 78 129 156 155 130 91 90 143 197 233 221 181 158 139 
164 166 139 122 120 118 116 116 115 114 113 112 110 108 107 105 103 101 99 97 
95 126 126 126 127 128 130 131 132 132 133 134 135 136 137 137 137 139 143 159 
177 175 157 148 152 154 173 196 215 216 206 173 120 95 124 161 177 196 206 185 
170 160 138 98 58 33 65 87 99 124 141 151 162 174 181 184 179 170 161 156 144 
107 55 21 20 9 13 22 55 123 156 146 122 97 89 118 176 229 229 196 155 157 161 
149 129 123 123 120 118 117 116 115 114 112 111 109 107 105 103 101 100 98 95 
127 127 127 128 130 131 133 134 134 135 135 136 137 138 138 139 141 139 147 
165 175 167 153 143 156 175 198 215 214 200 159 104 99 116 150 165 172 170 147 
136 115 63 28 26 21 32 45 86 124 149 165 174 182 189 193 189 176 178 171 164 
141 85 33 19 20 25 45 90 147 160 145 129 98 91 118 159 206 233 214 169 168 154 
133 122 124 125 122 120 119 118 117 115 114 112 110 108 105 103 101 100 98 96 
128 128 128 129 131 133 134 135 136 137 137 138 139 140 140 140 143 144 145 
151 163 172 165 152 162 177 199 211 207 188 146 98 100 119 135 153 157 161 144 
77 29 17 16 15 20 39 43 73 136 161 179 189 196 200 206 205 203 202 190 172 172 
137 72 61 59 63 97 140 161 160 149 133 103 100 147 159 173 225 223 185 158 143 
128 123 125 124 122 123 121 120 118 117 115 113 111 109 106 104 102 101 99 97 
129 129 130 131 132 134 136 137 138 138 138 139 140 141 141 142 141 145 145 
144 152 165 172 171 163 178 200 206 194 171 137 106 104 122 128 152 160 167 
167 104 53 26 14 10 17 38 64 120 157 178 196 210 216 217 222 225 225 223 216 
200 203 188 137 114 109 114 133 150 154 161 155 133 115 112 169 177 154 201 
223 193 143 134 127 126 125 124 123 123 123 122 120 118 116 114 112 110 107 
105 103 102 100 98 130 130 131 132 134 136 138 139 139 139 139 140 141 142 143 
143 144 144 146 147 147 153 165 176 165 182 203 198 177 155 131 116 114 124 
132 152 164 164 171 169 112 77 56 51 59 75 103 155 184 200 214 228 233 230 232 
234 229 232 234 236 224 213 194 153 141 147 148 155 161 165 153 143 120 125 
178 201 153 170 218 202 137 130 126 127 126 126 126 123 123 122 120 119 117 
115 113 111 108 106 104 103 101 99 131 132 132 134 136 138 140 141 141 141 141 
142 143 144 145 146 148 146 148 150 149 148 155 165 170 184 196 180 161 151 
134 125 123 128 139 148 166 175 164 160 153 131 117 111 112 124 155 199 206 
221 230 237 239 236 237 236 236 239 237 240 230 223 220 192 166 160 156 166 
167 164 150 144 124 140 188 212 154 150 199 198 141 132 128 129 126 127 128 
124 124 122 121 119 118 116 113 112 109 107 105 104 103 100 132 133 134 135 
137 139 141 142 143 143 144 145 146 147 148 149 148 148 149 150 151 153 154 
155 174 181 182 162 153 157 145 133 126 118 132 153 165 172 169 161 159 153 
142 132 143 168 191 201 218 233 237 238 240 240 244 242 239 243 241 237 243 
238 218 216 201 178 165 168 159 168 158 134 133 151 196 207 150 145 174 180 
145 135 132 133 127 125 127 126 123 122 121 119 118 116 114 112 109 107 106 
105 103 101 133 135 138 139 139 139 142 144 145 146 148 150 150 151 151 152 
153 150 152 155 154 155 156 154 163 181 176 170 175 170 155 141 133 124 135 
158 168 171 170 163 158 160 153 149 164 184 198 206 225 227 241 238 243 242 
238 244 243 236 240 236 240 245 228 221 208 193 177 170 172 173 159 137 136 
162 208 211 162 138 144 139 136 137 136 132 129 128 127 125 125 122 121 121 
120 116 113 113 110 109 108 105 103 101 135 136 138 139 140 141 143 145 148 
149 151 152 153 153 154 154 154 154 157 159 159 159 160 158 162 183 204 216 
203 177 163 157 144 134 140 155 163 170 174 171 164 162 159 166 180 190 201 
216 225 237 240 233 234 238 239 228 235 236 230 234 232 230 232 231 207 189 
178 178 179 174 160 142 142 171 210 203 156 135 141 138 136 137 135 132 129 
128 127 126 125 123 122 122 121 118 116 115 112 111 109 106 104 102 138 138 
138 139 141 144 146 148 150 152 153 154 155 155 156 157 158 159 161 161 161 
160 160 160 161 185 222 245 223 185 170 163 154 147 151 160 164 171 178 177 
173 169 167 175 185 193 207 225 225 226 217 223 221 211 204 191 180 196 200 
214 213 218 227 231 216 190 177 183 185 178 163 149 158 188 213 194 153 138 
142 138 136 136 135 132 129 129 128 127 125 124 123 123 123 120 119 118 113 
112 110 108 105 103 142 140 139 140 143 146 149 150 151 153 154 155 156 156 
157 158 161 162 161 161 161 160 160 161 169 202 234 244 221 191 176 167 162 
158 158 161 163 171 180 183 181 182 179 175 180 194 209 219 211 207 199 199 
177 144 126 122 120 126 137 158 182 218 228 237 230 199 178 180 184 179 169 
157 178 206 217 189 155 145 144 138 138 137 135 132 130 128 128 127 126 125 
125 124 123 122 121 120 114 114 112 109 106 104 143 142 140 141 144 148 150 
151 152 153 155 156 156 157 158 159 160 162 161 161 163 160 161 167 196 234 
252 243 221 195 180 173 168 164 159 156 158 168 181 188 187 189 186 179 182 
197 211 214 219 215 194 150 117 102 99 111 112 115 123 137 151 177 200 222 234 
212 190 181 180 177 172 168 193 219 222 190 158 147 144 140 140 137 135 132 
129 128 127 126 126 127 126 125 123 122 121 120 117 116 114 111 108 106 143 
142 142 143 146 149 151 151 152 153 155 156 157 158 160 161 161 163 162 163 
163 159 164 180 230 253 255 244 230 202 178 170 167 164 160 159 162 169 179 
187 188 183 181 181 187 202 215 218 215 203 174 123 113 104 86 83 75 85 89 114 
125 134 186 219 224 223 207 190 183 177 174 180 203 223 221 190 159 146 144 
145 141 137 134 132 129 127 126 126 127 128 127 125 123 123 122 121 121 120 
118 114 111 109 143 143 143 145 147 149 150 151 151 153 154 156 157 158 160 
161 162 164 162 162 162 162 182 213 250 254 248 245 234 208 183 167 162 161 
160 162 167 170 174 181 184 178 180 188 196 206 212 208 204 184 142 92 92 63 
38 28 34 28 22 52 93 116 174 198 211 226 218 201 193 182 177 190 207 213 204 
180 158 147 145 146 141 137 133 131 129 127 126 127 128 129 129 126 124 124 
124 123 123 122 120 117 113 111 142 143 144 146 147 148 149 150 150 151 153 
155 156 158 159 161 161 163 160 161 164 172 205 251 253 252 250 249 233 211 
195 177 162 159 155 157 163 166 170 178 181 182 191 202 208 210 200 182 179 
183 145 86 68 17 4 5 3 0 8 26 76 113 160 177 204 225 220 206 204 190 181 195 
205 197 183 166 155 148 144 142 140 136 132 131 129 127 126 127 128 130 130 
127 125 125 125 125 124 123 121 117 114 112 141 142 143 145 147 147 147 147 
148 150 153 155 157 158 160 161 160 164 165 161 173 213 247 252 252 250 248 
243 232 213 194 184 170 158 151 148 152 159 163 171 178 184 197 202 205 198 
196 177 172 167 142 92 41 14 6 2 0 3 5 11 49 107 147 167 186 214 223 204 207 
194 185 198 198 194 180 166 161 158 150 145 141 137 133 129 127 125 126 128 
130 131 131 131 129 128 127 127 127 125 121 118 115 114 140 141 142 145 147 
148 148 148 148 150 152 154 156 157 159 160 162 161 157 169 206 242 253 252 
249 246 242 237 226 210 195 186 173 160 151 144 145 153 159 169 178 189 196 
193 201 204 182 172 162 155 129 85 39 10 1 1 2 1 0 4 39 92 135 162 183 203 216 
205 208 191 199 197 191 186 174 164 160 156 150 146 141 137 131 128 125 125 
127 130 131 131 132 131 130 129 129 129 129 127 123 120 118 117 137 138 140 
143 146 148 149 148 147 149 151 153 154 156 157 158 159 162 161 186 234 255 
251 253 250 246 241 235 225 211 197 188 181 169 158 145 140 143 150 161 172 
175 180 192 192 195 179 164 159 150 125 87 46 13 0 0 2 0 1 11 44 88 125 152 
173 196 213 209 194 186 211 202 189 180 170 163 158 152 146 143 140 135 130 
126 125 125 128 132 132 133 133 133 132 132 131 131 131 129 127 125 123 122 
134 135 138 141 144 146 147 147 146 147 149 151 152 154 155 156 155 160 171 
204 243 252 246 252 248 244 239 232 223 209 194 184 180 172 164 150 138 135 
138 149 167 167 153 182 194 186 181 159 148 139 117 86 53 22 4 3 0 1 7 20 51 
88 117 139 167 199 211 211 184 201 220 211 190 176 166 162 155 146 141 139 136 
133 128 126 125 126 129 133 133 134 135 135 135 134 134 134 133 132 131 128 
126 125 132 134 136 139 143 144 144 144 144 145 147 149 150 152 153 154 155 
156 179 221 249 252 248 248 242 238 231 224 215 203 189 178 170 166 164 153 
140 133 131 139 152 168 136 143 187 184 171 152 139 128 106 78 50 26 10 4 4 9 
16 22 42 73 101 125 163 198 209 206 197 231 232 219 192 173 161 158 151 142 
138 136 132 129 127 127 127 128 130 133 135 136 137 137 136 136 136 136 134 
134 133 131 128 127 131 132 135 138 141 142 142 142 142 143 145 146 148 149 
151 152 157 161 196 238 253 251 249 244 241 236 227 220 213 205 194 184 171 
166 165 157 147 138 131 133 135 156 146 124 155 177 170 153 138 121 100 76 51 
34 25 18 14 24 35 36 44 66 93 122 153 188 208 203 219 246 242 231 202 177 160 
155 146 138 134 131 127 126 126 127 128 128 130 132 135 136 137 137 137 136 
136 136 134 134 134 132 129 127 128 129 132 135 138 140 139 139 139 140 142 
144 145 147 149 150 156 171 212 247 252 247 245 241 237 232 224 218 214 208 
197 188 177 167 160 154 150 144 133 130 131 138 152 140 135 157 166 157 130 
107 90 75 52 39 36 31 5 14 28 36 45 62 87 117 151 180 199 209 233 244 245 240 
211 182 160 151 141 133 130 125 124 123 123 125 127 128 130 132 135 136 137 
137 136 135 135 135 133 133 134 132 129 126 125 126 129 133 136 137 137 136 
137 138 140 142 144 146 148 149 155 175 212 244 252 247 241 237 227 223 217 
212 209 203 192 181 176 160 149 144 146 145 134 129 129 125 130 148 136 132 
141 147 128 98 83 71 44 25 21 14 15 16 28 45 63 83 109 140 162 179 183 216 238 
245 246 241 211 179 155 145 135 130 128 122 122 121 121 124 126 127 130 132 
135 136 136 136 135 134 133 133 131 133 133 132 129 126 121 122 126 131 134 
135 135 136 137 138 143 142 144 148 146 146 149 186 235 248 249 243 238 230 
224 215 209 209 209 205 196 185 166 153 138 130 131 137 137 129 116 113 118 
127 139 134 123 133 136 119 105 90 69 60 62 60 62 66 74 88 109 131 152 168 152 
167 186 216 237 241 243 245 223 185 149 135 129 124 119 116 117 119 122 124 
124 126 130 133 133 133 133 133 133 132 131 131 131 132 133 130 126 123 121 
121 124 128 130 132 133 135 140 141 147 147 147 148 144 145 157 201 243 250 
247 243 240 230 219 213 211 211 206 197 183 169 156 145 134 128 128 133 136 
134 123 117 114 110 116 121 116 122 138 136 136 129 113 102 95 87 92 92 98 117 
139 150 148 146 151 161 178 209 234 240 239 235 206 176 149 136 127 119 115 
115 115 118 122 123 124 125 128 131 131 131 130 129 129 128 128 128 127 128 
129 127 123 121 125 125 126 127 129 130 134 137 140 143 148 148 148 147 144 
149 173 224 249 251 243 241 237 226 216 212 210 208 200 189 175 161 155 152 
151 148 143 138 134 128 122 115 110 103 103 105 102 103 106 118 129 132 130 
125 119 113 113 122 131 138 141 138 137 141 147 156 171 200 225 234 236 230 
196 169 145 134 124 116 113 113 114 117 121 123 124 124 125 127 127 127 125 
124 124 124 124 125 125 126 126 124 120 118 130 130 130 130 130 131 134 138 
141 143 147 147 147 146 147 161 197 241 248 247 238 236 232 220 211 204 199 
196 191 186 178 170 172 168 161 151 143 143 140 133 115 108 109 109 103 96 94 
95 92 100 107 112 118 121 123 127 123 125 126 127 131 133 137 142 147 156 170 
192 211 223 232 231 198 168 140 128 123 118 114 111 113 116 120 123 123 123 
123 122 123 122 120 119 119 120 121 122 123 124 123 120 116 114 136 135 135 
135 134 134 135 138 141 144 148 147 147 145 152 174 222 249 243 242 237 233 
228 219 207 198 191 188 187 186 183 177 169 164 153 140 136 143 142 130 109 
109 111 110 102 96 99 101 95 92 89 90 94 96 100 109 116 115 114 118 130 140 
147 151 156 165 177 193 205 217 228 225 197 166 137 125 121 118 115 112 113 
116 119 122 122 121 120 118 117 117 116 116 116 117 118 119 119 119 118 115 
112 109 143 141 141 142 142 141 141 142 142 146 149 148 147 146 158 190 240 
248 239 238 236 231 227 221 214 205 197 193 189 186 179 171 157 157 153 145 
143 145 133 113 103 115 116 109 102 101 105 102 100 93 91 95 97 96 99 105 108 
116 121 123 129 138 151 163 169 175 186 200 210 221 227 216 186 161 138 126 
120 117 116 115 114 115 117 119 120 119 116 114 113 113 113 114 114 114 115 
115 114 113 113 111 108 107 149 147 146 148 149 148 148 148 146 149 151 148 
150 152 175 218 247 244 239 233 232 226 223 220 214 206 199 192 184 177 170 
162 161 159 155 149 145 141 129 113 107 121 115 106 101 99 102 100 94 89 94 100 
100 101 105 106 112 118 120 123 130 138 146 153 168 175 188 203 213 223 228 
212 179 157 137 128 122 118 118 117 114 114 115 116 116 115 113 111 109 110 
111 112 112 112 111 110 108 108 107 105 103 102 151 148 147 149 151 152 151 
151 152 154 153 150 154 163 194 246 247 240 241 230 226 220 219 216 202 195 
187 179 171 166 163 159 158 154 152 150 145 139 131 121 118 124 110 100 98 92 
97 101 98 95 100 102 96 98 104 101 105 114 121 125 131 136 140 144 157 167 183 
199 208 220 227 213 179 156 136 128 124 122 120 118 114 113 113 113 114 113 
110 108 107 109 110 111 111 110 108 106 104 103 102 99 97 96 147 148 149 151 
152 151 149 147 151 156 154 151 157 179 231 245 242 238 235 232 227 222 215 
205 198 198 196 189 180 170 161 155 154 153 152 152 150 143 130 120 116 123 
110 100 91 91 88 99 104 102 94 94 89 94 94 98 102 106 120 131 133 138 148 151 
155 166 172 186 203 225 230 200 166 146 142 132 125 120 122 119 113 112 112 
113 112 109 108 108 110 111 111 111 109 106 103 101 100 100 98 96 92 90 149 
148 148 149 150 149 147 145 143 150 153 157 163 198 239 243 240 234 231 229 
225 221 216 210 210 199 188 181 177 168 157 149 150 151 149 146 144 142 134 
125 124 124 109 102 98 97 90 95 109 108 103 100 94 94 95 97 102 105 116 126 
130 137 147 151 160 172 177 184 195 218 232 213 158 138 136 131 127 121 121 
118 114 111 108 107 107 107 109 111 111 111 110 108 105 102 99 98 97 97 96 93 
90 88 147 146 147 148 150 149 144 141 139 144 148 157 169 218 246 241 237 231 
228 228 225 222 218 213 203 188 175 171 172 167 157 149 147 149 146 139 138 
140 137 130 126 123 111 106 105 104 96 98 110 110 110 105 102 99 102 104 108 
109 116 125 129 137 147 152 160 169 173 183 197 221 237 219 157 134 133 131 
128 121 120 117 114 111 107 105 105 107 110 113 111 110 108 105 102 99 97 96 
96 96 95 93 90 87 140 141 145 149 152 150 144 139 140 141 145 158 188 234 246 
238 232 229 228 225 221 217 210 200 192 186 181 178 176 169 157 148 143 142 
138 133 133 135 134 132 125 124 118 114 111 107 104 108 110 109 112 107 109 
105 109 110 115 116 120 125 128 133 141 147 153 161 167 182 199 223 239 221 
165 139 135 132 129 121 119 115 111 109 108 107 107 108 110 111 110 108 106 
104 102 100 98 97 96 97 96 95 92 90 136 138 142 148 152 151 146 142 139 139 
146 168 218 244 241 234 229 229 225 217 209 205 195 180 175 177 176 173 170 
166 157 148 138 133 129 129 127 125 125 127 125 125 123 119 116 112 113 116 
116 112 113 109 113 109 111 111 116 119 122 123 123 124 129 136 144 155 164 
179 193 216 236 225 170 143 138 134 130 121 116 112 106 106 107 107 107 108 
108 108 108 107 105 104 103 101 99 97 97 98 98 97 94 92 136 137 140 144 148 
149 149 147 140 138 147 180 234 243 237 233 227 225 219 209 201 199 190 177 
167 162 152 145 144 148 151 150 143 135 130 129 125 118 115 118 122 120 120 
116 118 119 123 122 120 113 111 111 115 113 113 112 114 119 121 120 120 118 
122 130 136 146 158 178 195 216 234 223 169 144 140 135 131 120 113 106 104 
106 107 107 108 109 109 108 109 107 105 103 102 100 98 96 96 97 98 97 95 93 137 
138 140 142 145 146 147 148 143 138 150 197 235 237 235 231 226 218 211 204 
197 192 185 177 174 162 147 136 130 129 135 143 146 139 133 130 126 118 114 
114 118 116 117 110 114 117 124 121 118 113 109 113 115 116 112 112 111 116 
118 118 121 121 124 133 137 145 156 178 195 215 231 219 171 148 143 135 128 
118 110 101 101 105 108 109 111 112 111 109 108 105 102 100 99 98 96 94 94 96 
97 96 94 92 137 139 142 143 144 144 145 145 143 139 157 216 236 235 234 225 
224 212 204 200 191 180 173 168 162 155 151 147 136 123 124 134 140 136 131 
128 126 123 120 118 117 117 118 106 106 108 118 115 118 114 109 115 113 115 
109 109 108 113 114 116 123 125 128 137 147 155 164 178 186 202 225 222 178 
154 146 134 125 115 108 98 96 101 107 110 113 113 111 107 106 103 99 96 96 96 
95 94 93 95 96 96 94 92 137 139 141 143 144 144 143 142 139 141 184 227 233 
231 231 218 212 202 195 192 187 182 177 171 159 152 146 144 143 137 130 125 
128 134 135 126 120 123 122 112 116 117 116 110 106 106 109 111 114 111 107 
113 115 106 105 107 109 108 112 119 122 125 131 134 146 153 163 174 184 197 
220 213 173 148 137 124 118 109 102 93 91 96 104 110 110 107 103 102 101 99 97 
95 93 91 90 90 88 91 93 90 84 78 137 138 140 143 144 145 145 144 136 157 202 
231 227 224 224 212 203 195 190 188 184 178 172 167 158 150 143 144 146 142 
132 125 122 124 127 125 123 122 119 112 116 118 117 113 110 110 113 115 111 
110 105 110 113 107 108 110 114 112 116 121 123 126 131 134 143 146 151 158 
170 185 210 204 155 134 127 117 113 104 98 90 86 89 94 98 98 95 93 93 94 94 94 
93 91 88 84 83 82 82 80 73 65 60 132 133 135 137 140 141 142 143 140 177 218 
228 219 218 216 204 197 190 186 184 176 167 160 155 156 150 145 144 142 135 
124 116 113 110 111 116 119 117 112 109 114 116 116 113 109 109 111 113 111 
111 105 106 110 109 112 114 117 114 116 120 120 122 126 129 138 139 142 150 
165 183 212 207 151 130 123 112 106 97 91 85 79 80 82 84 83 81 82 83 86 88 91 
91 89 84 78 75 70 67 61 53 46 42 126 127 129 132 134 136 139 140 150 191 222 
220 214 218 213 199 195 188 184 180 169 156 149 145 143 144 145 143 138 130 
123 118 110 103 99 104 112 112 109 109 111 113 113 111 107 105 105 106 112 115 
108 105 108 111 115 114 117 112 113 116 116 116 120 124 126 130 137 147 163 
183 211 207 159 135 123 109 102 93 88 81 76 75 76 76 75 74 76 78 81 86 90 91 
88 83 76 71 63 58 50 42 37 35 
